<svg width="32" height="32" viewBox="0 0 32 32" fill="none" xmlns="http://www.w3.org/2000/svg">
<rect width="32" height="32" rx="16" fill="#1C3738"/>
<path d="M26.0267 11.4533C26.0284 11.6597 25.9657 11.8615 25.848 12.0306C25.7294 12.1996 25.5617 12.3277 25.3668 12.3967L21.3783 13.8478L19.928 17.8372C19.8568 18.0298 19.728 18.1959 19.5594 18.3132C19.3909 18.4304 19.1901 18.4933 18.9851 18.4933C18.7792 18.4933 18.5793 18.4304 18.4107 18.3132C18.2421 18.1959 18.1133 18.0298 18.0422 17.8372L16.591 13.8434L12.6033 12.3967C12.4102 12.3253 12.2441 12.1966 12.1272 12.0279C12.0103 11.8593 11.9468 11.6588 11.9468 11.4533C11.9468 11.2479 12.0103 11.0474 12.1272 10.8788C12.2441 10.7101 12.4102 10.5814 12.6033 10.5099L16.596 9.05892L18.0422 5.06947C18.1133 4.87688 18.2421 4.71078 18.4107 4.59349C18.5793 4.4762 18.7792 4.41333 18.9851 4.41333C19.1901 4.41333 19.3909 4.4762 19.5594 4.59349C19.728 4.71078 19.8568 4.87688 19.928 5.06947L21.3783 9.06332L25.3668 10.5099C25.5617 10.5791 25.7294 10.7071 25.848 10.8761C25.9657 11.0452 26.0284 11.247 26.0267 11.4533Z" fill="#8BAAAD"/>
<path d="M12.3734 15.5733C12.3743 15.6671 12.345 15.7589 12.292 15.8357C12.238 15.9126 12.1612 15.9707 12.0734 16.0021L10.2599 16.6617L9.60047 18.4751C9.56846 18.5627 9.50993 18.6381 9.43311 18.6915C9.35629 18.7447 9.26575 18.7733 9.17246 18.7733C9.07918 18.7733 8.98773 18.7447 8.91091 18.6915C8.83409 18.6381 8.77647 18.5627 8.74355 18.4751L8.08415 16.6597L6.27153 16.0021C6.18374 15.9696 6.10875 15.9112 6.05479 15.8345C6.00174 15.7579 5.97339 15.6667 5.97339 15.5733C5.97339 15.4799 6.00174 15.3888 6.05479 15.3121C6.10875 15.2355 6.18374 15.177 6.27153 15.1445L8.08598 14.485L8.74355 12.6716C8.77647 12.584 8.83409 12.5085 8.91091 12.4552C8.98773 12.4019 9.07918 12.3733 9.17246 12.3733C9.26575 12.3733 9.35629 12.4019 9.43311 12.4552C9.50993 12.5085 9.56846 12.584 9.60047 12.6716L10.2599 14.487L12.0734 15.1445C12.1612 15.1759 12.238 15.2341 12.292 15.311C12.345 15.3878 12.3743 15.4796 12.3734 15.5733Z" fill="#8BAAAD"/>
<path d="M20.9067 23.68C20.9076 23.8238 20.8655 23.9645 20.7868 24.0823C20.7082 24.2001 20.5964 24.2894 20.4667 24.3375L17.8073 25.3488L16.8406 28.1294C16.7932 28.2636 16.7074 28.3793 16.5947 28.4611C16.4821 28.5429 16.3488 28.5867 16.212 28.5867C16.0752 28.5867 15.9411 28.5429 15.8293 28.4611C15.7166 28.3793 15.6308 28.2636 15.5834 28.1294L14.6158 25.3457L11.9573 24.3375C11.8285 24.2877 11.7185 24.198 11.6398 24.0804C11.562 23.9629 11.52 23.8232 11.52 23.68C11.52 23.5368 11.562 23.3971 11.6398 23.2796C11.7185 23.162 11.8285 23.0722 11.9573 23.0225L14.6194 22.0112L15.5834 19.2306C15.6308 19.0963 15.7166 18.9807 15.8293 18.8988C15.9411 18.8171 16.0752 18.7733 16.212 18.7733C16.3488 18.7733 16.4821 18.8171 16.5947 18.8988C16.7074 18.9807 16.7932 19.0963 16.8406 19.2306L17.8073 22.0142L20.4667 23.0225C20.5964 23.0706 20.7082 23.1599 20.7868 23.2777C20.8655 23.3955 20.9076 23.5362 20.9067 23.68Z" fill="#8BAAAD"/>
</svg>
