<svg width="18" height="18" viewBox="0 0 18 18" fill="none" xmlns="http://www.w3.org/2000/svg">
<path d="M17.8456 16.9063C17.7852 17.0108 17.6984 17.0976 17.5939 17.1579C17.4893 17.2183 17.3707 17.25 17.25 17.25H0.750028C0.629406 17.2499 0.51094 17.218 0.406525 17.1576C0.30211 17.0972 0.215421 17.0104 0.155164 16.9059C0.0949064 16.8015 0.0632015 16.6829 0.0632324 16.5623C0.0632634 16.4417 0.0950292 16.3232 0.15534 16.2188C1.46417 13.956 3.48112 12.3335 5.83495 11.5644C4.67064 10.8713 3.76604 9.8151 3.26008 8.55811C2.75411 7.30111 2.67476 5.91279 3.03419 4.60633C3.39363 3.29987 4.17199 2.14751 5.24974 1.32624C6.32748 0.504958 7.64502 0.0601654 9.00003 0.0601654C10.355 0.0601654 11.6726 0.504958 12.7503 1.32624C13.8281 2.14751 14.6064 3.29987 14.9659 4.60633C15.3253 5.91279 15.2459 7.30111 14.74 8.55811C14.234 9.8151 13.3294 10.8713 12.1651 11.5644C14.5189 12.3335 16.5359 13.956 17.8447 16.2188C17.9052 16.3232 17.9371 16.4417 17.9373 16.5624C17.9374 16.6831 17.9058 16.8017 17.8456 16.9063Z" fill="#4D4847"/>
</svg>
